# xmcd CD database file
#
# Track frame offsets:
#	150
#	21985
#	45379
#	68380
#	86093
#	108048
#	120837
#	144985
#	166468
#	196100
#	218323
#	235717
#	256186
#
# Disc length: 3774 seconds
#
# Revision: 0
# Processed by: cddbd v1.5.2PL0 Copyright (c) Steve Scherf et al.
# Submitted via: CDex 1.70beta2
#
DISCID=930ebc0d
DTITLE=Various Jazz Player - Misty - Summertime - Jazz Piano Best
DYEAR=1954
DGENRE=Jazz
TTITLE0=Goldenearring - Ray Bryant (Ray Evans/Victor Young/Jay Livingston)
TTITLE1=My One And Only Love - Oscar Peterson(Guy Robert/Robert Melliin)
TTITLE2=Beautifull Love - Bill Evans(Haven Gillspie/Victor Young/Wayne King/Egbert Van Alstyne)
TTITLE3=Autumn Leaves - Wynton Kelly(Jacques Prevent/Johhny Mercer/Joseph Kosma)
TTITLE4=Caravan - Kenny Drew(Irving Mills/Duke Ellington/Juan Tizol)
TTITLE5=Misty - Erroll Garner(Johnny Burke/Erroll Garner)
TTITLE6=Take The A Train - Tommy Flanagan(Billy Strayhorn)
TTITLE7=Summertime - Red Garland(Dubose Heyward/George Garshwin)
TTITLE8=Softly As In A Morning Sunrise - Sonny Clark(Oscar Hammerstein/Sigmund Romberg)
TTITLE9=Yesterdays /Hampton Hawes(Otto Harbach/Jerome Kern)
TTITLE10=I Should Care - Duke Jordan(Sammy Cahn/Axel Stordahl/Paul Weston)
TTITLE11=You'd Be So Nice To Come Home To - Mccoy Tyner(Cole Porter)
TTITLE12=Stella By Starlight - Phineas Newborn Jr(Nedwashington/Victor Young)
EXTD=YEAR: 1954
EXTT0=
EXTT1=
EXTT2=
EXTT3=
EXTT4=
EXTT5=
EXTT6=
EXTT7=
EXTT8=
EXTT9=
EXTT10=
EXTT11=
EXTT12=
PLAYORDER=
